<svg id="OBJECTS" xmlns="http://www.w3.org/2000/svg" viewBox="0 0 403.97 311.96"><rect x="372.99" y="120.2" width="6.56" height="164.27" transform="translate(752.53 404.67) rotate(180)" fill="#3b364d"/><rect width="147.91" height="131.12" rx="10.76" fill="#aab2c8"/><rect x="10.03" y="10.84" width="127.85" height="109.44" fill="#e0e7ff"/><line x1="73.95" y1="10.84" x2="73.95" y2="120.28" fill="none" stroke="#aab2c8" stroke-miterlimit="10"/><line x1="137.88" y1="65.56" x2="10.03" y2="65.56" fill="none" stroke="#aab2c8" stroke-miterlimit="10"/><polygon points="65.96 10.84 23.08 120.2 42.05 120.2 85.39 10.84 65.96 10.84" fill="#fff" opacity="0.54"/><polygon points="99.12 10.84 56.24 120.2 75.2 120.2 118.54 10.84 99.12 10.84" fill="#fff" opacity="0.54"/><rect x="278.07" y="114.33" width="125.9" height="11.74" fill="#773c4d"/><rect x="323.67" y="114.33" width="80.3" height="11.74" fill="#965363"/><path d="M305.33,95.47h64.22a0,0,0,0,1,0,0v18.86a0,0,0,0,1,0,0H305.33a4,4,0,0,1-4-4V99.51A4,4,0,0,1,305.33,95.47Z" fill="#61648a"/><rect x="306.23" y="99.45" width="64.41" height="10.89" fill="#edf1fc"/><rect x="306.08" y="99.45" width="45.98" height="10.89" fill="#e0e7ff"/><path d="M294.78,76.61H359a0,0,0,0,1,0,0V95.47a0,0,0,0,1,0,0H294.78a4,4,0,0,1-4-4V80.66A4,4,0,0,1,294.78,76.61Z" fill="#ffc55a"/><rect x="295.53" y="80.59" width="64.41" height="10.89" fill="#edf1fc"/><rect x="295.53" y="80.59" width="46.3" height="10.89" fill="#e0e7ff"/><path d="M309.35,57.75h64.22a0,0,0,0,1,0,0V76.61a0,0,0,0,1,0,0H309.35a4,4,0,0,1-4-4V61.8A4,4,0,0,1,309.35,57.75Z" fill="#af2f48"/><rect x="310.31" y="61.73" width="64.41" height="10.89" fill="#edf1fc"/><rect x="310.09" y="61.73" width="43.41" height="10.89" fill="#e0e7ff"/><path d="M302.05,211.45c.08,14-1.24,27.4-4.87,39.44v0c-10.16,33.7-38.41,56.91-104.48,54.76-89.68-2.92-106-86.3-113.49-164.26C73.09,78.16,92.11,31.6,149.2,16.28c13.27-3.57,28.61-5.44,46.16-5.44C276.06,10.84,301.71,158.1,302.05,211.45Z" fill="#ffc55a"/><path d="M297.17,250.91c-10.16,33.7-38.41,56.91-104.48,54.76-89.68-2.92-106-86.3-113.49-164.26C73.09,78.16,92.11,31.6,149.2,16.28,100.17,46.16,88,100.61,108,183.43s70.58,106.91,103.32,107S285.16,279.77,297.17,250.91Z" fill="#f49947"/><path d="M172.64,89c-64,11.39-36.06,102.75-21.92,128.33s20.16,55.89,52.83,57.23S278,261.12,282,250.34s-14.44-66.91-14.44-66.91S265,126.6,247.3,111.68,193.88,85.24,172.64,89Z" fill="#f49947"/><path d="M258.28,243.11c-11.69,21.84-51.51,29.51-65.16,26.06-8-2-17.67-9.34-26.43-19.81-5.6-9.85-10.08-21.34-16-32a124.69,124.69,0,0,1-7.25-16.28c-4.87-23.47-4.73-51.32,4.44-60.82,12.44-12.87,24.51-21.94,25.38-29.91.67-6.26-6.43-14.51-5-20.38,1.39-.36,2.84-.67,4.34-.94,17.5-3.11,44.81,4.15,63.8,15.14,1.82,6.92,2,16.2,6.28,19.2,6.61,4.6,16.82,33.47,19.41,47S258.28,243.11,258.28,243.11Z" fill="#f27c49"/><path d="M345.15,277.75c.52,8.22,24.3-2.27,27.45-6.81,0,0-13,37.41-19.8,37.41s-25.26-19.49-25.26-19.49l2.22-11.11Z" fill="#af2f48"/><path d="M352.8,308.35c-7.38,3.17,11.05-43.36,19.8-42.31S362.32,304.27,352.8,308.35Z" fill="#d35473"/><path d="M348,223.88c-.48,24.05-6.73,53.87-6.73,53.87h-15.4S316.38,257.46,312,237A94.77,94.77,0,0,1,309.79,222s-23.87,7.22-47,2.89a275.36,275.36,0,0,1-29.92-7.8c-13.22-4.14-23.6-8.08-23.6-8.08l.78-1,16.84-21.3,45.32-6.81,5.31-.81,32.22,10C338.36,192.13,348.46,199.82,348,223.88Z" fill="#31344c"/><path d="M312,237A94.77,94.77,0,0,1,309.79,222s-23.87,7.22-47,2.89a275.36,275.36,0,0,1-29.92-7.8L210.1,208l-2-.79-3.78-15.76,48.75-17,19.19,5.47L304.5,189c-7.8,14,7.88,30.55,11.33,35.53s13.23-3.06,19.43,0S316.88,226.15,312,237Z" fill="#232433" opacity="0.54"/><path d="M321,291.22c7.08,15.39,17.57,22.73,23.17,20.28L341.76,286l-10.14-4.37Z" fill="#af2f48"/><path d="M344.21,311.5c-12.46,2.08-10.14-22-9.44-33.75s10.49-10.66,11.54-1.57S352.6,310.1,344.21,311.5Z" fill="#d35473"/><path d="M331.63,281.6l-10.58,9.62c-43.3-12.51-68.79-52-68.79-52-24.06,27.9-51,34.15-72.67,0,0,0,1.37-15.18,18.94-26.89a64.27,64.27,0,0,1,12.18-6.3c18.8-7.44,43.8-8.89,59.21-9a28.47,28.47,0,0,1,23.38,12.07c9.06,12.82,17.7,28.7,24.48,42.33C326.11,268.26,331.63,281.6,331.63,281.6Z" fill="#383952"/><path d="M331.63,281.6l-10.58,9.62c-43.3-12.51-68.79-52-68.79-52-24.06,27.9-51,34.15-72.67,0,0,0,1.37-15.18,18.94-26.89L216.68,209c-21.18,41.59,29.74,31.89,38.92,24.3s17.86-15.19,22-15.61S260,233.3,275.29,251.5s50.48,29.57,42.49,0C326.11,268.26,331.63,281.6,331.63,281.6Z" fill="#232433" opacity="0.54"/><path d="M226.1,74.46h-.64S219,99,208.1,108.16a13.94,13.94,0,0,1-6.34,3.22c-14.76,2.73-27.61-14.08-30-25.62-1.36-6.44,1-10.4,3.41-12.62a12.21,12.21,0,0,1,3.73-2.47s1-18.19,7.31-17.86c6.09.32,5.07,2.73,5,2.91.39-.52,13.65-18.14,22.77-16.22s2.76,15.58,2.76,15.58,11.69-11.85,15.58-5-7.62,15.09-7.62,15.09,9.9-.15,10.87,3.42S235,75.54,226.1,74.46Z" fill="#6d3744"/><path d="M208.1,108.16a13.94,13.94,0,0,1-6.34,3.22c-14.76,2.73-27.61-14.08-30-25.62-1.36-6.44,1-10.4,3.41-12.62,2.2,2.85,5.14,8.56,11.84,1.32h3.11Z" fill="#542633"/><path d="M247.3,181.2l-67.38,62.46a68.82,68.82,0,0,1-8.59-9.22h0a67.08,67.08,0,0,1-10.21-18.8,83.62,83.62,0,0,1-3.77-15.22c-1.85-11.83-1.6-24.21-.85-36.5,1.75-28.77,10.45-48,45-48.48,0,0,15.83-4.43,27.56,1.89,9.22,5,15.22,41.64,17.37,57.06C247,178.57,247.3,181.2,247.3,181.2Z" fill="#61648a"/><path d="M233,152.75c-35.47,13.3-50.16-12.5-50.16-12.5l-11.47,41.23L195.86,189l42.73-4.45Z" fill="#383952" opacity="0.36"/><path d="M247.3,181.2l-67.38,62.46a68.82,68.82,0,0,1-8.59-9.22c11.72-.89,36.9-28.92,30.28-30.38-5.92-1.3-26.28,12.56-40.5,11.58a83.62,83.62,0,0,1-3.77-15.22L179,181.48l67.43-7.09C247,178.57,247.3,181.2,247.3,181.2Z" fill="#383952" opacity="0.36"/><path d="M209.32,172.9c7.91-5.35,17.12-.89,20.39,1.49s0,8.61,0,8.61a33.63,33.63,0,0,0-4.75-2.37c-1.19-.3-6.92,4.16-18.32,2.37S209.32,172.9,209.32,172.9Z" fill="#f4b8ab"/><path d="M163.08,135.58c15.52-11.58,24.31-1.41,23.56,18.6l-.75,20s19.79-6.32,24.63-6.32c0,0,.42,13.69,0,18.6,0,0-23.93,23.16-39.72,24.91s-12.64-29.47-14-43.86S157.69,139.6,163.08,135.58Z" fill="#61648a"/><path d="M227,183.93l11.77-47.69A10.89,10.89,0,0,1,249.32,128h67.55a6.8,6.8,0,0,1,6.59,8.48l-13.64,49.87Z" fill="#c3c9f4"/><path d="M231.71,183.93l11.77-47.69A10.89,10.89,0,0,1,254.05,128H321.6a6.8,6.8,0,0,1,6.59,8.48l-13.64,49.87Z" fill="#e0e7ff"/><path d="M295,188.68h-86a2.37,2.37,0,0,1-2.37-2.37h0a2.37,2.37,0,0,1,2.37-2.38h86a2.37,2.37,0,0,1,2.37,2.38h0A2.37,2.37,0,0,1,295,188.68Z" fill="#c3c9f4"/><path d="M315.3,188.68h-86a2.37,2.37,0,0,1-2.37-2.37h0a2.37,2.37,0,0,1,2.37-2.38h86a2.37,2.37,0,0,1,2.37,2.38h0A2.37,2.37,0,0,1,315.3,188.68Z" fill="#e0e7ff"/><path d="M286.56,157c-1.13,6.2-3.94,10.88-6.28,10.45s-3.3-5.79-2.17-12,3.94-10.88,6.28-10.46S287.69,150.8,286.56,157Z" fill="#c3c9f4"/><path d="M230,78.45c1.49,22-2,31.69-14.47,32.93v5.12a6.87,6.87,0,0,1-6.87,6.86h0a6.86,6.86,0,0,1-6.86-6.86v-5.12s-10-4.24-12-10.48,0-1,0-1l-.89-25.45h41.38Z" fill="#f4b8ab"/><path d="M190.41,90.34c-3.13-5.72-6.82-3.32-7.56,0s5.9,11.41,7.56,8.57S190.41,90.34,190.41,90.34Z" fill="#f4b8ab"/><path d="M183.54,71.64C190.22,79.76,209.15,84,216,82s-2.89-8.28-2.89-8.28,12.71,8.77,18.53,5.85-9.87-10.07-9.87-10.07Z" fill="#6d3744"/><path d="M206.23,89c0,1.17-.21,2.12-.47,2.12s-.47-1-.47-2.12.21-2.13.47-2.13S206.23,87.85,206.23,89Z" fill="none" stroke="#191918" stroke-miterlimit="10" stroke-width="2"/><path d="M219.71,89c0,1.17-.21,2.12-.47,2.12s-.47-1-.47-2.12.21-2.13.47-2.13S219.71,87.85,219.71,89Z" fill="none" stroke="#191918" stroke-miterlimit="10" stroke-width="2"/><path d="M214.28,100.88c-6.46.15-11.47-4.5-11.47-4.5" fill="none" stroke="#e56a85" stroke-linecap="round" stroke-miterlimit="10"/><path d="M215.49,111.38a115.88,115.88,0,0,1-11.94.3l11.94,4.82Z" fill="#dd6595" opacity="0.53"/><path d="M190.08,91.88c-2.8-2.94-4.17-1.73-4,1.32s3.86,5.24,5.05,4.36S190.08,91.88,190.08,91.88Z" fill="#dd6595" opacity="0.53"/><path d="M80.68,244.78c-12.41-4.56-19.25-2.79-23-7.85,0,0,10.13-1.77,15.7,0Z" fill="#7c9e1e"/><path d="M73.34,236.93c-15.08-7.88-19.55-16.82-23.39-23s-6-11.28-7.45-11.71,6.18,1.06,13.42,8.3,10.22,8.31,16,14.06,10.86,14.21,11.49,20.2h-2.7Z" fill="#b7ac15"/><path d="M77.64,234.8c-8.15-12.5-.84-19.69-10.65-33.86-11.5-16.61-7.88-33.22-6.18-43.65,0,0-2.55,12.14,7.46,24s19.8,16.39,20.65,34-2.55,29.52-2.55,29.52H80.68Z" fill="#7c9e1e"/><path d="M85.05,244.78c-2.73-11.71,2.59-31.7,3-51.5s-10.65-34.5,5.75-53c0,0-3.41,3.41,1.28,17s15.11,27.89,10,46.21-16.12,33.31-16,41.28Z" fill="#b7ac15"/><path d="M89.06,244.78c-1.71-14.06,12.64-36,24.77-40.86a26.92,26.92,0,0,1-6.6,19.55c-7.88,8.77-13.73,21.31-13.73,21.31Z" fill="#a88f14"/><path d="M93.5,244.78c.53-9.34,8.62-12.62,16.93-15,0,0-10,10.1-11.71,15Z" fill="#426313"/><path d="M97.39,245.84c1.42-7.07,4.61-9.3,4-9.7s-4.22,5.55-6,8.64c0,0-2.43-8.07,1.21-15s7.07-12.21,7.07-12.21-11.72,13.55-12.33,20.39a43.86,43.86,0,0,1,.81-15.75c2-8.88,7.28-17.37,5.36-27.88s-4-21.73-4-21.73.87,10.69,1.88,20-1.74,14.11-4.41,24-1.18,24-2.33,23.93-3,2.55-3,2.55-1.22-15.16-3-28.09-1.61-14.68-9.49-22.4-8.9-12.44-8.9-12.44,5.33,10.58,9.74,17.45,5.83,9.91,5.83,22,.6,18.94,1.61,20.89S74,228.93,67.27,224.35a61,61,0,0,1-12.73-11.86c-.61-1,6.47,11.72,11.72,15.16s14.42,15.16,14.42,15.16l-15-4,17,7.07Z" fill="#426313" opacity="0.36"/><path d="M110.79,248.55l-8,46a4.18,4.18,0,0,1-.56,1.54,4.62,4.62,0,0,1-4,2.31H69.47a4.64,4.64,0,0,1-4.59-3.89l-7.49-46A4.64,4.64,0,0,1,62,243.11H106.2A4.66,4.66,0,0,1,110.79,248.55Z" fill="#3a3852"/><path d="M102.23,296.12a4.62,4.62,0,0,1-4,2.31H69.47a4.64,4.64,0,0,1-4.59-3.89l-7.49-46A4.64,4.64,0,0,1,62,243.11h15.2C63.08,265,86.6,290.46,102.23,296.12Z" fill="#232433" opacity="0.54"/><path d="M150.72,217.35c5.89,10.67,10.37,22.16,16,32a114.91,114.91,0,0,1-16.26-25.89,108.61,108.61,0,0,1-7-22.4A124.69,124.69,0,0,0,150.72,217.35Z" fill="#ffc55a"/></svg>