<svg xmlns="http://www.w3.org/2000/svg" viewBox="0 0 119.73 110.13"><g id="OBJECTS"><polygon points="0 110.13 24.7 110.13 30.91 98.69 6.2 98.72 0 110.13" fill="#fff"/><polygon points="56.46 51.71 44.1 29 24.46 65.13 49.15 65.13 56.46 51.71" fill="#fff"/><polygon points="119.73 110.13 110.3 92.78 110.3 92.78 98.5 71.08 98.5 71.08 59.87 0 47.47 22.8 59.84 45.5 73.77 71.08 45.94 71.08 45.94 71.05 21.23 71.08 14.62 71.08 3.08 92.77 9.44 92.77 9.43 92.78 33.97 92.78 34.07 92.89 34.14 92.77 85.59 92.78 95.04 110.13 119.73 110.13" fill="#fff"/></g></svg>