<svg id="Layer_1" data-name="Layer 1" xmlns="http://www.w3.org/2000/svg" viewBox="0 0 1083.97 1083.95"><path d="M542,1084c298.51,0,542-243.46,542-542S840.5,0,542,0,0,243.46,0,542,243.47,1084,542,1084Z" fill="#1dd460" fill-rule="evenodd"/><path d="M778.12,777.91a33.6,33.6,0,0,1-46.24,11.19c-126.7-77.44-286.17-94.93-474-52a33.62,33.62,0,0,1-15-65.56c205.52-47,381.82-26.77,524,60.14A33.62,33.62,0,0,1,778.12,777.91Z" fill="#fff" fill-rule="evenodd"/><path d="M844.15,631a42.09,42.09,0,0,1-57.87,13.84c-145-89.12-366.1-114.94-537.64-62.86a42.07,42.07,0,1,1-24.45-80.5c196-59.45,439.58-30.66,606.12,71.68A42.09,42.09,0,0,1,844.15,631Z" fill="#fff" fill-rule="evenodd"/><path d="M849.84,478C675.92,374.72,389,365.22,223,415.61A50.46,50.46,0,1,1,193.71,319c190.59-57.86,507.42-46.68,707.64,72.17A50.47,50.47,0,0,1,849.84,478Z" fill="#fff" fill-rule="evenodd"/></svg>